PathFileType	4	(X/Y/Z)	D:\mayra\Descargas\0003~aa~Standing.trc
DataRate	CameraRate	NumFrames	NumMarkers	Units	OrigDataRate	OrigDataStartFrame	OrigNumFrames
250.00	250.00	8	22	mm	250.00	1341	2178
Frame#	Time	r.should			l.should			c7			r.asis			l.asis			sacrum			r.bar1			l.bar1			r.knee1			l.knee1			r.bar2			r.mall			l.bar2			l.mall			r.met			r.heel			l.heel			l.met			r.mallm			l.mallm			r.kneem			l.kneem			
		X1	Y1	Z1	X2	Y2	Z2	X3	Y3	Z3	X4	Y4	Z4	X5	Y5	Z5	X6	Y6	Z6	X7	Y7	Z7	X8	Y8	Z8	X9	Y9	Z9	X10	Y10	Z10	X11	Y11	Z11	X12	Y12	Z12	X13	Y13	Z13	X14	Y14	Z14	X15	Y15	Z15	X16	Y16	Z16	X17	Y17	Z17	X18	Y18	Z18	X19	Y19	Z19	X20	Y20	Z20	X21	Y21	Z21	X22	Y22	Z22	

1340	5.360000	999.379158	1329.801202	362.905949	1030.009627	1320.886612	73.006481	919.058979	1355.900526	227.165624	1135.337114	871.004701	361.614645	1081.606627	873.174787	60.056567	882.315159	938.199937	237.107992	1032.558084	834.756374	435.190797	1026.399374	794.290304	26.773417	1007.847071	467.780501	388.731062	1001.027226	447.252810	96.952274	1004.665017	405.283868	383.911818	970.817566	76.152071	364.064455	979.927719	403.298497	94.249129	974.791467	70.337757	111.077383	1115.954638	42.710025	344.999701	908.991635	33.407379	319.124907	913.727343	31.718262	156.244248	1117.276192	40.923480	129.407212	980.589688	75.274907	280.397534	982.442915	74.868202	189.757481	1033.637047	450.457960	249.915391	1009.810567	447.973788	230.554461	
1341	5.364000	999.371231	1329.794288	362.922132	1029.981732	1320.877433	73.021635	919.066310	1355.898619	227.179974	1135.323286	871.002138	361.625701	1081.547976	873.161972	60.075033	882.295132	938.204885	237.105146	1032.539129	834.759295	435.197592	1026.394606	794.288933	26.773617	1007.832050	467.771173	388.739765	1001.017570	447.253853	96.943371	1004.662633	405.276626	383.917809	970.818460	76.162748	364.070058	979.928732	403.294772	94.248734	974.990487	70.215009	111.114293	1115.959883	42.705037	345.009744	908.987045	33.403840	319.128543	914.065421	32.424577	151.802704	1117.268562	40.923517	129.409358	980.584323	75.282015	280.397564	979.126275	74.615106	192.163602	1033.659577	450.473398	249.906272	1009.802938	447.975099	230.557486	
1342	5.368000	999.355078	1329.788804	362.938702	1029.960871	1320.875883	73.035948	919.052482	1355.902076	227.195352	1135.311604	870.998383	361.636609	1081.532955	873.168945	60.067706	882.293761	938.207507	237.100184	1032.514811	834.752083	435.202777	1026.391387	794.291914	26.775395	1007.828236	467.772543	388.752878	1001.014471	447.251558	96.941322	1004.672527	405.276299	383.928090	970.820189	76.164320	364.074856	979.929328	403.304070	94.239756	975.046575	70.174314	111.130968	1115.958214	42.707216	345.011115	908.991814	33.412673	319.131315	914.150774	32.595247	150.695682	1117.272615	40.924132	129.414871	980.600655	75.275220	280.420959	978.296757	74.550301	192.764997	1033.667326	450.488865	249.900743	1009.797335	447.982162	230.563030	
1343	5.372000	999.329865	1329.781175	362.958610	1029.929638	1320.879221	73.049262	919.059396	1355.907202	227.204815	1135.301828	870.997846	361.640960	1081.547856	873.183250	60.064577	882.277310	938.213050	237.099111	1032.495499	834.749699	435.200453	1026.398540	794.299245	26.769696	1007.830977	467.770994	388.764620	1000.997305	447.254121	96.934818	1004.657030	405.269921	383.933216	970.815420	76.169938	364.071995	979.943454	403.309822	94.230525	975.043297	70.168734	111.129157	1115.969419	42.717751	345.000565	909.000635	33.413790	319.138497	914.169133	32.635190	150.417164	1117.266655	40.923502	129.413381	980.607986	75.269580	280.435115	978.095472	74.536860	192.917138	1033.663750	450.500518	249.906629	1009.789348	447.975725	230.568200	
1344	5.376000	999.315739	1329.774261	362.975001	1029.904127	1320.873976	73.064305	919.061065	1355.912447	227.221251	1135.293007	870.997727	361.644268	1081.520319	873.181283	60.065705	882.265031	938.214123	237.095281	1032.471418	834.744096	435.202003	1026.392341	794.298291	26.773361	1007.836223	467.773855	388.773024	1001.010180	447.257876	96.928217	1004.640698	405.262381	383.946627	970.820606	76.171398	364.056915	979.948521	403.305054	94.228238	975.042939	70.171706	111.120909	1115.971804	42.719334	344.997466	909.008265	33.410549	319.149286	914.158821	32.645836	150.347739	1117.269754	40.917825	129.417568	980.612874	75.266995	280.432075	978.043020	74.527517	192.955747	1033.688545	450.525105	249.899715	1009.781599	447.974175	230.574131	
1345	5.380000	999.298632	1329.769015	362.991482	1029.866695	1320.874453	73.077925	919.055104	1355.913162	227.251962	1135.261893	870.987535	361.655414	1081.470728	873.170137	60.077310	882.253170	938.210607	237.101436	1032.431602	834.737778	435.202122	1026.380777	794.298768	26.779143	1007.833242	467.779249	388.781101	1001.016498	447.257876	96.919775	1004.625320	405.252755	383.960813	970.829427	76.179206	364.046752	979.945719	403.309762	94.221070	975.049555	70.174232	111.125402	1115.967035	42.718440	345.002174	909.008622	33.412647	319.150895	914.158583	32.650236	150.322527	1117.275953	40.922843	129.414290	980.614185	75.272769	280.433595	978.014350	74.534595	192.956641	1033.621550	450.494498	249.942616	1009.773374	447.981656	230.575502	
1346	5.384000	999.281466	1329.762340	363.003850	1029.831171	1320.880294	73.087893	919.046760	1355.910182	227.267966	1135.205269	870.976686	361.655653	1081.436396	873.172164	60.086951	882.219911	938.226104	237.096116	1032.389402	834.735692	435.203493	1026.371360	794.301271	26.767153	1007.817745	467.776656	388.789058	1001.013517	447.256297	96.918069	1004.612207	405.241549	383.968592	970.831394	76.187201	364.055932	979.942560	403.306246	94.208635	975.044072	70.174649	111.121461	1115.970850	42.711928	345.002353	908.993661	33.413120	319.142878	914.156616	32.648891	150.316030	1117.264628	40.937692	129.418999	980.623841	75.270124	280.435890	977.998614	74.536450	192.960232	1033.541679	450.468540	249.985233	1009.761691	447.981149	230.574161	
1347	5.388000	999.247789	1329.753757	363.014996	1029.807091	1320.881844	73.100246	919.021964	1355.909705	227.275878	1135.180235	870.980620	361.661792	1081.370354	873.160422	60.108662	882.205486	938.224733	237.088189	1032.359123	834.734738	435.199797	1026.353478	794.298053	26.766000	1007.792950	467.775315	388.787776	1001.001716	447.258621	96.917629	1004.606247	405.238539	383.974314	970.845103	76.176256	364.069104	979.928732	403.305799	94.202541	975.040019	70.170216	111.119680	1115.961432	42.712867	345.009089	908.983350	33.414509	319.140285	914.140046	32.645144	150.312364	1117.251635	40.940121	129.420042	980.624318	75.269118	280.436844	977.988362	74.529842	192.958951	1033.533931	450.471878	249.976844	1009.746790	447.980583	230.573133	
